Coordinates
version=1
nRows=22
nColumns=24
inDegrees=yes

Units are S.I. units (second, meters, Newtons, ...)
Angles are in degrees.

endheader
time	pelvis_tilt	pelvis_list	pelvis_rotation	pelvis_tx	pelvis_ty	pelvis_tz	hip_flexion_r	hip_adduction_r	hip_rotation_r	knee_angle_r	ankle_angle_r	subtalar_angle_r	mtp_angle_r	hip_flexion_l	hip_adduction_l	hip_rotation_l	knee_angle_l	ankle_angle_l	subtalar_angle_l	mtp_angle_l	lumbar_extension	lumbar_bending	lumbar_rotation
      1.65333333	     -2.17750080	      7.29510367	     -5.17135601	      0.49066818	      1.00949401	      0.32795864	     22.69220804	    -10.47661838	      3.43273042	    -70.35738329	     -1.05891129	     -3.44130786	     11.35713724	      8.04042464	     12.21068853	      3.18786691	    -11.61224275	      2.04434500	    -19.73179794	     -4.40387714	    -10.77759301	     -2.74866649	     -2.48069304
      1.65750000	     -2.15485972	      7.15167895	     -4.98553207	      0.49520221	      1.01027097	      0.32753791	     23.11011414	    -10.28940732	      3.31297986	    -69.84258193	     -0.26549430	     -3.11987640	     11.28068882	      7.52739514	     12.10831750	      3.34261055	    -11.25782662	      2.05681939	    -19.56759510	     -4.44123280	    -10.84331297	     -2.55245550	     -2.58994630
      1.66166667	     -2.12261223	      7.01230816	     -4.80150952	      0.49972899	      1.01102632	      0.32712261	     23.50501252	    -10.10926396	      3.19304588	    -69.28136173	      0.49034160	     -2.85784950	     11.18398387	      6.99526879	     12.00955022	      3.51635163	    -10.87903138	      2.03411914	    -19.47724447	     -4.48414141	    -10.90642304	     -2.34104023	     -2.81419872
      1.66583333	     -2.09808000	      6.90391540	     -4.61231274	      0.50425100	      1.01172344	      0.32671112	     23.90414754	     -9.96759004	      3.07201682	    -68.69006430	      1.22045145	     -2.66159312	     10.97272906	      6.46461521	     11.94050413	      3.71307083	    -10.47352254	      1.93265150	    -19.44568777	     -4.56583863	    -10.95173111	     -2.16038267	     -3.10914834
      1.67000000	     -2.10914072	      6.75338229	     -4.43015773	      0.50874027	      1.01235153	      0.32633214	     24.31865319	     -9.76432961	      2.95817126	    -68.03829426	      1.89065695	     -2.53513260	     10.91791305	      5.99644314	     11.81453904	      3.84853424	    -10.12557369	      1.91845101	    -19.34139766	     -4.58692642	    -10.97320270	     -1.93769761	     -3.18411811
      1.67416667	     -2.04374744	      6.63944909	     -4.26276553	      0.51324230	      1.01305362	      0.32596326	     24.64546406	     -9.61516455	      2.85868312	    -67.34622297	      2.53110642	     -2.31201754	     10.79094922	      5.41467459	     11.73313592	      4.03879679	     -9.70064734	      1.88514089	    -19.27684810	     -4.62733453	    -11.06722948	     -1.75776771	     -3.44936269
      1.67833333	     -2.01202606	      6.54373480	     -4.07838500	      0.51771174	      1.01364734	      0.32560149	     25.00066836	     -9.48595134	      2.74820872	    -66.62815492	      3.15307859	     -2.22012957	     10.55876616	      4.87919385	     11.66398716	      4.23483515	     -9.28711371	      1.76695264	    -19.24903210	     -4.69283240	    -11.13154333	     -1.60268690	     -3.70643030
      1.68250000	     -2.00441097	      6.43379416	     -3.91145196	      0.52217745	      1.01417748	      0.32526474	     25.36657036	     -9.33091639	      2.65702654	    -65.85816769	      3.71428102	     -2.12991419	     10.40716071	      4.37771868	     11.57233773	      4.39023413	     -8.89226054	      1.74250261	    -19.18059682	     -4.72942217	    -11.16012513	     -1.42640574	     -3.84390276
      1.68666667	     -2.03218863	      6.34334318	     -3.73431018	      0.52661173	      1.01460272	      0.32495147	     25.76496850	     -9.19187022	      2.56797775	    -65.06337935	      4.25414263	     -2.16496406	     10.34728775	      3.93146605	     11.49134122	      4.51040854	     -8.52281903	      1.67848160	    -19.05570208	     -4.74285645	    -11.16188789	     -1.28591091	     -3.92257413
      1.69083333	     -1.98456064	      6.24229726	     -3.56496682	      0.53105966	      1.01513654	      0.32465146	     26.05182017	     -9.05204673	      2.47424757	    -64.19975941	      4.71673575	     -2.14565116	     10.18787094	      3.37445239	     11.40417531	      4.70037116	     -8.09439758	      1.61860343	    -19.02268130	     -4.77135310	    -11.23354174	     -1.13122660	     -4.18499396
      1.69500000	     -1.96523682	      6.16834601	     -3.39581433	      0.53548704	      1.01555309	      0.32436235	     26.36909404	     -8.93851088	      2.39099620	    -63.31860899	      5.16859527	     -2.21120056	     10.02028210	      2.86093254	     11.33945317	      4.86735075	     -7.68582795	      1.53401718	    -18.97236106	     -4.79680509	    -11.27944207	     -1.00259978	     -4.36152618
      1.69916667	     -1.95483631	      6.09238673	     -3.22251970	      0.53989621	      1.01594103	      0.32408750	     26.67639312	     -8.82193978	      2.30547124	    -62.39098838	      5.56382757	     -2.33606389	      9.84829777	      2.36010708	     11.26767048	      5.03140092	     -7.28075774	      1.45154575	    -18.90975683	     -4.81774692	    -11.31782502	     -0.88089902	     -4.52690026
      1.70333333	     -1.96604284	      6.02147328	     -3.04062021	      0.54428501	      1.01625485	      0.32384082	     26.99086936	     -8.70999576	      2.21747977	    -61.42805379	      5.95704625	     -2.49628114	      9.74710517	      1.90051928	     11.19329689	      5.16327003	     -6.91005052	      1.36737282	    -18.80195161	     -4.82741565	    -11.33755296	     -0.78499564	     -4.63201778
      1.70750000	     -1.94420006	      5.96866811	     -2.88230801	      0.54868179	      1.01656858	      0.32360422	     27.26377055	     -8.61531322	      2.15400891	    -60.42928735	      6.22657858	     -2.71969863	      9.54379297	      1.37450050	     11.13995118	      5.35089840	     -6.46999288	      1.28772035	    -18.77021662	     -4.84091992	    -11.38761807	     -0.67616530	     -4.85648195
      1.71166667	     -1.96426659	      5.91428314	     -2.69688906	      0.55305397	      1.01679778	      0.32337120	     27.55748628	     -8.52605283	      2.06587425	    -59.39315261	      6.54581510	     -2.94806500	      9.43462333	      0.92789030	     11.07712773	      5.48426018	     -6.10166344	      1.20046464	    -18.66651217	     -4.84604808	    -11.39446563	     -0.59493948	     -4.95579729
      1.71583333	     -1.96560047	      5.87329448	     -2.52586742	      0.55741928	      1.01699053	      0.32315949	     27.82320873	     -8.44905890	      1.99332650	    -58.32653329	      6.78070527	     -3.24932902	      9.31150071	      0.44902292	     11.02638983	      5.63661399	     -5.70404915	      1.12389235	    -18.58222588	     -4.84891794	    -11.42398299	     -0.51860471	     -5.11045620
      1.72000000	     -1.96659409	      5.84288608	     -2.36906297	      0.56179548	      1.01715192	      0.32297180	     28.07695116	     -8.37776858	      1.93791670	    -57.22530662	      6.92787973	     -3.59342253	      9.11554076	     -0.04327120	     10.98494886	      5.80816239	     -5.27701879	      1.05478381	    -18.55203829	     -4.84939591	    -11.44541670	     -0.44024150	     -5.31459412
      1.72416667	     -1.98751074	      5.82446010	     -2.19792357	      0.56614333	      1.01724354	      0.32278821	     28.33613521	     -8.32629203	      1.87025065	    -56.09443538	      7.09488676	     -3.94734348	      8.93045228	     -0.49655251	     10.95097504	      5.96081310	     -4.88316195	      0.97374493	    -18.48346783	     -4.84702815	    -11.44925526	     -0.39025138	     -5.46988242
      1.72833333	     -2.01185798	      5.81104774	     -2.03177298	      0.57048460	      1.01728790	      0.32262292	     28.58437825	     -8.27785742	      1.81289511	    -54.93134453	      7.22053157	     -4.33463215	      8.73048457	     -0.94258492	     10.91917995	      6.10918533	     -4.49658160	      0.90093558	    -18.40994555	     -4.84095767	    -11.45412999	     -0.34794074	     -5.62685308
      1.73250000	     -2.03732432	      5.79468192	     -1.84746892	      0.57482348	      1.01732774	      0.32244569	     28.80500658	     -8.24005787	      1.72680902	    -53.72282983	      7.35353597	     -4.73152674	      8.60272388	     -1.37256559	     10.88047999	      6.23413644	     -4.14246610	      0.82094877	    -18.29665588	     -4.83539168	    -11.45966989	     -0.30895628	     -5.74222377
      1.73666667	     -2.06202187	      5.79766602	     -1.70000712	      0.57917152	      1.01727560	      0.32231555	     29.02916067	     -8.20799150	      1.67990430	    -52.50296376	      7.38198470	     -5.17737001	      8.42552544	     -1.82164791	     10.86093068	      6.36356943	     -3.74524188	      0.78753589	    -18.22176508	     -4.82387853	    -11.45569623	     -0.28123282	     -5.91378914
      1.74083333	     -2.09548162	      5.80245923	     -1.53165044	      0.58350542	      1.01721754	      0.32217527	     29.23308091	     -8.18892910	      1.61396036	    -51.23591571	      7.42770554	     -5.61973162	      8.27126023	     -2.24115220	     10.83975554	      6.48572061	     -3.39228133	      0.72704664	    -18.11553893	     -4.81215329	    -11.43985426	     -0.25794974	     -6.05155015
